<svg xmlns="http://www.w3.org/2000/svg" viewBox="0 0 128 128">
  <defs>
    <linearGradient id="g" x1="0" y1="0" x2="1" y2="1">
      <stop offset="0" stop-color="#F99F2A"/>
      <stop offset="0.55" stop-color="#FFCC66"/>
      <stop offset="1" stop-color="#F99F2A"/>
    </linearGradient>

    <radialGradient id="r" cx="35%" cy="25%" r="80%">
      <stop offset="0" stop-color="#1A1A1A"/>
      <stop offset="1" stop-color="#070707"/>
    </radialGradient>

    <filter id="soft" x="-20%" y="-20%" width="140%" height="140%">
      <feGaussianBlur stdDeviation="2.2" result="b"/>
      <feColorMatrix in="b" type="matrix"
        values="1 0 0 0 0
                0 1 0 0 0
                0 0 1 0 0
                0 0 0 0.35 0" result="s"/>
      <feMerge>
        <feMergeNode in="s"/>
        <feMergeNode in="SourceGraphic"/>
      </feMerge>
    </filter>
  </defs>

  <!-- Background -->
  <rect x="10" y="10" width="108" height="108" rx="28" fill="url(#r)"/>
  <rect x="10" y="10" width="108" height="108" rx="28"
        fill="none" stroke="rgba(255,255,255,0.10)" stroke-width="2"/>

  <!-- Corner highlight -->
  <path d="M24 42 C30 22, 52 16, 72 18"
        fill="none" stroke="rgba(255,255,255,0.10)" stroke-width="6" stroke-linecap="round"/>

  <!-- Emblem ring -->
  <circle cx="64" cy="64" r="33" fill="none" stroke="url(#g)" stroke-width="6" filter="url(#soft)"/>
  <circle cx="64" cy="64" r="26" fill="none" stroke="rgba(249,159,42,0.22)" stroke-width="2"/>

  <!-- PS monogram -->
  <g filter="url(#soft)">
    <path d="M51 82 V46 h18.5 q8.5 0 13 4.3 4.5 4.2 4.5 11.2 0 7-4.5 11.2-4.5 4.3-13 4.3H62v6.8z
             M62 67.2 h7.3 q5 0 7.7-2.3 2.7-2.4 2.7-6.4 0-4-2.7-6.4-2.7-2.3-7.7-2.3H62z"
          fill="url(#g)"/>
    <path d="M83 49.5 q-3.2-3.8-10.2-3.8-3.8 0-6.1 1.4-2.4 1.4-2.4 3.8 0 2.2 2.2 3.3 2.1 1 6.9 1.9
             8.4 1.6 12 4.4 3.7 2.8 3.7 8.3 0 6-4.6 9.4-4.6 3.3-12.2 3.3-11.6 0-17-7.1
             l6.6-5 q3.6 4.6 10.6 4.6 4.3 0 6.9-1.5 2.6-1.6 2.6-4.2 0-2.3-2.3-3.5-2.2-1.2-7.6-2.2
             -8-1.4-11.5-4.2-3.5-2.8-3.5-8.0 0-5.7 4.4-9.0 4.5-3.3 11.5-3.3 9.7 0 14.9 5.8z"
          fill="rgba(255,255,255,0.16)"/>
  </g>

  <!-- Tiny sparkle -->
  <path d="M98 34 l2.2 6.4 6.4 2.2-6.4 2.2-2.2 6.4-2.2-6.4-6.4-2.2 6.4-2.2z"
        fill="rgba(249,159,42,0.65)"/>
</svg>
